<svg width="954" height="926" viewBox="0 0 954 926" fill="none" xmlns="http://www.w3.org/2000/svg">
<path d="M952.451 208.986L887.191 9.19C885.183 3.166 879.159 -0.85 873.135 0.154C815.907 3.166 772.735 25.254 727.555 48.346C689.403 68.426 649.243 88.506 597.035 98.546C594.023 98.546 592.016 99.55 589.004 99.55L584.987 86.498C581.975 78.466 572.939 73.446 564.907 76.458C560.891 77.462 557.88 80.474 555.872 84.49C553.864 88.506 553.863 92.522 554.867 96.538L694.423 521.23C694.423 522.234 693.419 522.234 693.419 523.238L671.331 568.418C650.247 612.594 604.064 641.71 553.864 641.71H398.244C349.048 641.71 302.863 612.594 280.775 568.418L258.687 523.238C258.687 522.234 257.683 522.234 257.683 521.23L397.239 96.538C398.243 92.522 398.243 88.506 396.235 84.49C394.227 80.474 391.215 77.462 387.199 76.458C379.167 73.446 370.131 78.466 367.119 86.498L363.104 99.55C360.092 99.55 358.084 98.546 355.072 98.546C302.864 88.506 263.707 68.426 224.551 48.346C179.371 25.254 137.203 3.166 78.9715 0.154C72.9475 0.154 66.9235 4.17 64.9155 9.19L0.659481 208.986C-0.344519 213.002 -0.344517 217.018 1.66348 220.03C3.67148 223.042 7.68748 225.05 11.7035 226.054C65.9195 232.078 112.103 255.17 157.283 277.258C200.455 299.346 241.619 319.426 288.807 325.45L231.579 499.142C220.535 496.13 208.487 496.13 197.443 501.15C175.355 513.198 165.315 540.306 176.359 563.398L196.439 605.566L184.391 643.718C183.387 647.734 183.387 651.75 185.395 655.766C187.403 659.782 190.415 662.794 194.431 663.798C195.435 663.798 195.435 663.798 196.439 664.802C204.471 665.806 211.499 661.79 214.511 653.758L218.527 641.71C252.663 688.898 303.868 721.026 360.092 731.066V894.718C360.092 911.786 374.147 925.842 391.215 925.842H560.892C577.96 925.842 592.015 911.786 592.015 894.718V730.062C649.243 720.022 700.447 687.894 733.579 640.706L737.595 652.754C739.603 660.786 747.635 664.802 755.667 663.798C756.671 663.798 756.671 663.798 757.675 662.794C761.691 661.79 764.703 658.778 766.711 654.762C768.719 650.746 768.719 646.73 767.715 642.714L754.663 604.562L774.743 562.394C785.787 539.302 775.747 512.194 753.659 501.15C742.615 496.13 730.567 495.126 719.523 499.142L662.295 325.45C709.483 319.426 750.647 298.342 793.819 277.258C838.999 255.17 885.183 232.078 939.399 226.054C943.415 225.05 946.427 223.042 949.439 220.03C953.455 217.018 954.459 213.002 952.451 208.986ZM324.952 209.99C307.884 207.982 298.847 204.97 282.783 200.954L295.835 159.79C311.899 164.81 320.936 166.818 338.004 169.83L324.952 209.99ZM266.719 96.538C281.779 103.566 290.815 107.582 306.879 112.602L293.827 153.766C277.763 148.746 268.727 144.73 253.667 137.702L266.719 96.538ZM246.639 140.714L233.587 181.878C219.531 175.854 211.499 170.834 198.447 164.81L194.431 161.798L207.483 120.634L211.499 122.642C223.547 129.67 232.583 133.686 246.639 140.714ZM178.367 54.37C191.419 60.394 200.455 64.41 212.503 70.434L217.523 73.446L204.471 114.61L201.459 112.602C188.407 106.578 180.375 101.558 166.319 95.534L178.367 54.37ZM87.0035 25.254C104.071 27.262 113.107 29.27 129.171 34.29L115.115 75.454C99.0515 70.434 90.0155 68.426 72.9475 65.414L87.0035 25.254ZM158.287 97.542L145.235 138.706C130.175 131.678 121.139 127.662 105.075 122.642L118.127 81.478C134.191 87.502 143.227 90.514 158.287 97.542ZM55.8795 116.618C72.9475 118.626 81.9835 121.638 98.0475 125.654L84.9955 166.818C68.9315 161.798 59.8955 159.79 42.8275 156.778L55.8795 116.618ZM115.115 230.07C100.055 223.042 91.0195 220.03 74.9555 214.006L88.0075 172.842C104.071 177.862 113.107 181.878 128.167 188.906L115.115 230.07ZM135.195 186.898L148.247 145.734C161.299 151.758 169.331 155.774 181.379 161.798L187.403 164.81L174.351 205.974L170.335 203.966C157.283 196.938 149.251 192.922 135.195 186.898ZM202.463 273.242C188.407 267.218 180.375 263.202 167.323 256.174L163.307 254.166L176.359 213.002L180.375 215.01C193.427 221.034 201.459 226.054 215.515 232.078L202.463 273.242ZM236.599 188.906C251.659 195.934 260.695 199.95 276.759 204.97L263.707 246.134C247.643 241.114 238.607 237.098 223.547 230.07L236.599 188.906ZM252.663 292.318L265.715 252.158C281.779 257.178 290.815 259.186 307.883 262.198L294.831 302.358C277.763 299.346 268.727 297.338 252.663 292.318ZM867.111 25.254L880.163 66.418C863.095 68.426 854.059 71.438 837.995 76.458L824.943 35.294C840.003 29.27 850.043 27.262 867.111 25.254ZM834.983 81.478L848.035 122.642C831.971 127.662 822.935 131.678 807.875 138.706L794.823 97.542C809.883 90.514 818.919 87.502 834.983 81.478ZM740.607 70.434C752.655 64.41 760.687 60.394 774.743 54.37L787.795 95.534C773.739 101.558 764.703 106.578 752.655 112.602L749.643 114.61L736.591 73.446L740.607 70.434ZM741.611 123.646L745.627 121.638L758.679 162.802L754.663 164.81C742.615 170.834 733.579 175.854 719.523 181.878L706.471 140.714C720.527 133.686 729.563 129.67 741.611 123.646ZM686.391 96.538L699.443 137.702C684.383 144.73 675.347 148.746 659.283 153.766L647.235 112.602C663.299 107.582 671.331 103.566 686.391 96.538ZM615.107 169.83C632.175 167.822 641.211 164.81 657.275 159.79L670.327 200.954C654.263 205.974 645.227 207.982 628.159 209.99L615.107 169.83ZM658.279 302.358L645.227 262.198C662.295 260.19 671.331 258.182 687.395 252.158L700.447 293.322C684.383 297.338 675.347 299.346 658.279 302.358ZM690.407 245.13L677.355 203.966C693.419 198.946 702.455 194.93 717.515 187.902L730.567 229.066C715.507 236.094 706.471 240.11 690.407 245.13ZM785.787 255.17C772.735 262.198 764.703 266.214 750.647 272.238L736.591 232.078C750.647 226.054 759.683 221.034 771.731 215.01L775.747 213.002L788.799 254.166L785.787 255.17ZM782.775 203.966L778.759 205.974L765.707 164.81L771.731 161.798C783.779 155.774 791.811 151.758 804.863 145.734L817.915 186.898C803.859 192.922 795.827 196.938 782.775 203.966ZM837.995 230.07L824.943 188.906C840.003 181.878 849.039 178.866 865.103 172.842L878.155 214.006C862.091 220.03 853.055 223.042 837.995 230.07ZM868.115 166.818L855.063 125.654C871.127 120.634 880.163 118.626 897.231 116.618L910.283 156.778C893.215 159.79 884.179 161.798 868.115 166.818Z" fill="black"/>
<path d="M476.556 612.594C539.213 612.594 590.007 561.8 590.007 499.142C590.007 436.484 539.213 385.69 476.556 385.69C413.898 385.69 363.104 436.484 363.104 499.142C363.104 561.8 413.898 612.594 476.556 612.594Z" fill="black"/>
</svg>
