<?xml version="1.0" encoding="utf-8"?>
<!-- Generator: Adobe Illustrator 24.0.1, SVG Export Plug-In . SVG Version: 6.00 Build 0)  -->
<svg version="1.1" id="Layer_1" xmlns="http://www.w3.org/2000/svg" xmlns:xlink="http://www.w3.org/1999/xlink" x="0px" y="0px"
	 viewBox="0 0 1350.3 692.1" style="enable-background:new 0 0 1350.3 692.1;" xml:space="preserve">
<style type="text/css">
	.st0{fill:#FFFFFF;}
</style>
<g>
	<path class="st0" d="M128.7,253.5H56.9h-4.2c-3.9,0-6.8-0.7-8.9-2.2s-3.1-3.5-3.1-6.2c0-4.4,2.1-7.3,6.4-8.7
		c3.5-1.2,5.6-1.9,6.2-2.2c0.6-0.3,1.2-0.9,1.9-1.9c1.3-1.7,1.9-4.5,1.9-8.2V62.9c0-3.8-0.6-6.5-1.9-8.2c-0.6-1-1.3-1.6-1.9-1.9
		c-0.6-0.3-2.7-1-6.2-2.2c-4.3-1.4-6.4-4.3-6.4-8.7c0-2.7,1-4.8,3.1-6.2s5.1-2.2,8.9-2.2h4.2h71.9h4.2c3.9,0,6.8,0.7,8.9,2.2
		s3.1,3.5,3.1,6.2c0,4.4-2.1,7.3-6.4,8.7c-3.5,1.2-5.6,1.9-6.2,2.2c-0.6,0.3-1.2,0.9-1.9,1.9c-1.3,1.7-1.9,4.5-1.9,8.2v161.3
		c0,3.8,0.6,6.5,1.9,8.2c0.6,1,1.3,1.6,1.9,1.9c0.6,0.3,2.7,1,6.2,2.2c4.3,1.4,6.4,4.3,6.4,8.7c0,2.7-1,4.8-3.1,6.2
		s-5.1,2.2-8.9,2.2H128.7z"/>
	<path class="st0" d="M307.4,74.5l8.2,33.4l-28.5,104.1c-0.9,3-1.3,5.8-1.3,8.4c0,6.8,3.2,11.6,9.5,14.5l5.6,2.6
		c3.5,1.6,5.3,4.3,5.3,8.1c0,5.4-3.9,8.1-11.8,8.1h-40.9c-4,0-7.1-0.8-9.4-2.5c-2.3-1.7-3.5-3.9-3.5-6.8c0-3.1,2.4-5.7,7.1-7.7
		c4.4-1.9,7.7-3.7,9.7-5.2c2.1-1.6,4.1-3.7,6-6.4c3-4.4,5.5-10.3,7.4-17.6L307.4,74.5z M318.6,33.5h64.9l44.8,189.3
		c0.9,3.3,1.8,6.3,2.9,8.9c1,2,3.1,3.7,6.4,5c2.8,1.2,4.7,2.4,5.8,3.5c1.1,1.2,1.6,2.8,1.6,4.8c0,5.6-4.2,8.4-12.6,8.4h-80.4
		c-3.2,0-5.8-0.8-7.7-2.3c-1.9-1.6-2.9-3.6-2.9-6.2c0-2.1,0.4-3.8,1.3-4.8c0.9-1.1,2.8-2.4,5.8-4c2.1-1.1,3.7-2.3,4.5-3.5
		c0.9-1.3,1.3-2.9,1.3-4.8c0-1.8-0.2-3.4-0.5-4.8l-5.2-23.4h-45l4.4-19.2h36.1l-29.6-131L318.6,33.5z"/>
	<path class="st0" d="M543,33.5l31.7,90.4l14-48.8v53.5l-37.2,124.9H543L480.5,68c-2.1-6.2-4.4-10.4-6.8-12.6
		c-1.4-1.4-3.8-2.4-7.3-3.1c-7-1.5-10.5-4.8-10.5-10c0-2.8,1-5,3-6.5c2-1.6,4.9-2.3,8.6-2.3H543z M480.5,107.7l17.1,48.7v48.5
		c0,4.9,0.2,8.5,0.6,10.6c0.4,2.1,1.2,4.5,2.5,7.1c2.3,4.7,5.4,8.3,9.3,10.6l6,3.9c4.1,2.5,6.1,5.2,6.1,8.2c0,5.5-4,8.2-12.1,8.2
		h-40.4c-8.1,0-12.1-2.7-12.1-8.1c0-1.7,0.3-3,1-3.9c0.7-0.9,2.1-2,4.1-3.1c11.9-6.4,17.9-17.6,17.9-33.5V107.7z M602.3,33.5h71.5
		h4.4c8.1,0,12.1,2.8,12.1,8.4c0,4.4-2.2,7.3-6.4,8.7c-3.5,1.2-5.6,1.9-6.2,2.2c-0.6,0.3-1.2,0.9-1.9,1.9c-1.3,1.7-1.9,4.5-1.9,8.2
		v161.3c0,3.8,0.6,6.5,1.9,8.2c0.6,1,1.3,1.6,1.9,1.9c0.6,0.3,2.7,1,6.2,2.2c4.3,1.4,6.4,4.3,6.4,8.7c0,5.6-4,8.4-12.1,8.4h-4.4
		h-71.7h-5.3c-4.7,0-8.3-0.7-10.7-2.2c-2.4-1.5-3.6-3.6-3.6-6.5c0-4.7,2.6-7.7,7.7-8.9c4.2-1.1,6.7-1.7,7.4-2
		c0.8-0.3,1.5-0.9,2.3-1.9c1.6-1.9,2.4-5,2.4-9.2V33.5z"/>
	<path class="st0" d="M159.7,548.6v70.3c0,4.2,0.8,7.2,2.4,9c0.9,1.1,1.7,1.7,2.4,2c0.8,0.3,3.2,0.9,7.4,2c5.2,1.2,7.7,4.1,7.7,8.9
		c0,3.1-1.5,5.5-4.4,7.1c-1.7,1.1-5.1,1.6-10,1.6h-5.5H88h-5.3c-4.8,0-8.2-0.6-10.2-1.9c-2.8-1.7-4.2-4-4.2-6.8
		c0-4.7,2.6-7.7,7.7-8.9c4.2-1.1,6.7-1.7,7.4-2c0.8-0.3,1.5-0.9,2.3-2c1.6-1.8,2.4-4.8,2.4-9v-54.5L42.5,455.6
		c-1.7-4.1-4.1-7-7.3-8.9c-2.9-1.8-4.8-3.3-5.6-4.4c-0.8-1.1-1.2-2.6-1.2-4.5c0-5.6,4.1-8.4,12.2-8.4h79c4.2,0,7.1,0.5,8.7,1.5
		c2.7,1.7,4,4,4,6.8c0,3.4-1.6,6.1-4.7,8.1l-4.7,2.9c-1.8,1.2-2.7,3-2.7,5.3c0,2.7,0.6,5.3,1.8,7.9L159.7,548.6z M166,533.3l-9-21.1
		l16.9-37.9c1.4-3.2,2.1-7.6,2.1-13.2c0-6.2-3.4-10.7-10.3-13.4c-3.8-1.5-6.2-2.8-7.3-3.9s-1.7-2.9-1.7-5.2c0-2.9,1-5.1,2.9-6.6
		c1.3-1,2.7-1.6,4.4-1.9s4.4-0.5,8.4-0.5H212c7.5,0,11.3,3,11.3,9c0,2.2-0.5,3.8-1.5,5c-1,1.2-3,2.4-5.9,3.7
		c-5.3,2.4-9,4.7-11.3,7.1c-3.2,3.4-5.9,7.4-8.1,11.8l-3.7,8.2L166,533.3z"/>
	<path class="st0" d="M325.6,429.5v219.9h-71.7h-4.2c-3.9,0-6.8-0.7-8.9-2.2c-2.1-1.4-3.1-3.5-3.1-6.2c0-4.4,2.1-7.3,6.4-8.7
		c3.5-1.2,5.6-1.9,6.2-2.2c0.6-0.3,1.2-0.9,1.9-1.9c1.3-1.7,1.9-4.5,1.9-8.2V458.9c0-3.8-0.6-6.5-1.9-8.2c-0.6-1-1.3-1.6-1.9-1.9
		c-0.6-0.3-2.7-1-6.2-2.2c-4.3-1.4-6.4-4.3-6.4-8.7c0-2.7,1-4.8,3.1-6.2s5.1-2.2,8.9-2.2h4.2H325.6z M339.2,546.8v-18.7
		c6.2-3,10.8-6.3,13.9-9.8c3-3.5,5.2-8.3,6.6-14.2c0.9-4.1,2-6.9,3.4-8.5c1.4-1.6,3.4-2.3,6-2.3c3.4,0,5.8,1.3,7.1,4
		c0.8,1.4,1.1,4.6,1.1,9.5v61.4c0,5.1-0.6,8.5-1.7,10.5s-3.2,2.9-6.2,2.9c-2.5,0-4.4-0.8-5.8-2.3c-1.4-1.5-2.5-4-3.4-7.6
		c-1.8-7.4-4.4-13.1-7.8-17.1C348.9,550.8,344.5,548.1,339.2,546.8z M340,429.5h64.9v57c0,3.3-0.6,5.7-1.9,7.3
		c-1.3,1.5-3.3,2.3-6.1,2.3c-2.4,0-4.1-0.5-5.2-1.5c-1.1-1-2.1-3-3.1-6c-4.1-12.5-10.1-22-18-28.5c-7.9-6.6-18.1-10.5-30.7-11.8
		V429.5z M340.1,649.5v-17.4c7-1.1,12.8-2.6,17.3-4.5c4.6-1.9,9.2-4.9,13.8-8.9c4.6-4,8.3-8.1,11-12.3c2.7-4.2,5.3-9.9,7.8-16.8
		c1.2-3.4,2.4-5.8,3.7-7c1.3-1.2,3.1-1.9,5.3-1.9c3,0,5.1,0.9,6.3,2.7c1.2,1.8,1.8,4.9,1.8,9.3v56.9H340.1z"/>
	<path class="st0" d="M583.1,529v21.8c0,2.5-0.5,4.2-1.5,5.1c-1,0.9-2.7,1.4-5.2,1.4h-69.3c-2.5,0-4.2-0.5-5.2-1.4
		c-1-0.9-1.5-2.6-1.5-5.1V529c0-2.5,0.5-4.2,1.5-5.1c1-0.9,2.7-1.4,5.2-1.4h69.3c2.5,0,4.2,0.5,5.2,1.4
		C582.7,524.8,583.1,526.5,583.1,529z"/>
	<path class="st0" d="M766.8,429.5v219.9h-71.7h-4.2c-3.9,0-6.8-0.7-8.9-2.2c-2.1-1.4-3.1-3.5-3.1-6.2c0-4.4,2.1-7.3,6.4-8.7
		c3.5-1.2,5.6-1.9,6.2-2.2c0.6-0.3,1.2-0.9,1.9-1.9c1.3-1.7,1.9-4.5,1.9-8.2V458.9c0-3.8-0.6-6.5-1.9-8.2c-0.6-1-1.3-1.6-1.9-1.9
		c-0.6-0.3-2.7-1-6.2-2.2c-4.3-1.4-6.4-4.3-6.4-8.7c0-2.7,1-4.8,3.1-6.2c2.1-1.5,5.1-2.2,8.9-2.2h4.2H766.8z M780.4,546.8v-18.7
		c6.2-3,10.8-6.3,13.9-9.8c3-3.5,5.2-8.3,6.6-14.2c0.9-4.1,2-6.9,3.4-8.5c1.4-1.6,3.4-2.3,6-2.3c3.4,0,5.8,1.3,7.1,4
		c0.8,1.4,1.1,4.6,1.1,9.5v61.4c0,5.1-0.6,8.5-1.7,10.5c-1.1,1.9-3.2,2.9-6.2,2.9c-2.5,0-4.4-0.8-5.8-2.3c-1.4-1.5-2.5-4-3.4-7.6
		c-1.8-7.4-4.4-13.1-7.8-17.1C790.1,550.8,785.7,548.1,780.4,546.8z M781.2,429.5h64.9v57c0,3.3-0.6,5.7-1.9,7.3
		c-1.3,1.5-3.3,2.3-6.1,2.3c-2.4,0-4.1-0.5-5.2-1.5c-1.1-1-2.1-3-3.1-6c-4.1-12.5-10.1-22-18-28.5c-7.9-6.6-18.1-10.5-30.7-11.8
		V429.5z M781.3,649.5v-17.4c7-1.1,12.8-2.6,17.3-4.5c4.6-1.9,9.2-4.9,13.8-8.9c4.6-4,8.3-8.1,11-12.3c2.7-4.2,5.3-9.9,7.8-16.8
		c1.2-3.4,2.4-5.8,3.7-7c1.3-1.2,3.1-1.9,5.3-1.9c3,0,5.1,0.9,6.3,2.7c1.2,1.8,1.8,4.9,1.8,9.3v56.9H781.3z"/>
	<path class="st0" d="M886.2,585.2V458.9c0-3.8-0.6-6.5-1.9-8.2c-0.6-1-1.3-1.6-1.9-1.9c-0.6-0.3-2.7-1-6.2-2.2
		c-4.3-1.4-6.4-4.2-6.4-8.5c0-2.8,1-4.9,3.1-6.4c2.1-1.5,5.1-2.2,8.9-2.2h4.2h71.9h4.2l5.8,0.6c1.8,0.5,3.3,1.5,4.5,2.9
		c1.2,1.4,1.8,3.1,1.8,5c0,4.3-2.2,7.1-6.4,8.5c-3.5,1.2-5.6,1.9-6.2,2.2c-0.6,0.3-1.2,0.9-1.9,1.9c-1.3,1.7-1.9,4.5-1.9,8.2v135.2
		c0,9.1,0.2,15.5,0.7,19.1c0.5,3.6,1.5,6.8,3,9.7c1.4,2.7,3,4.6,4.7,5.8c1.7,1.2,5,2.5,9.8,4v21.1h-3.5c-14,0-25.6-1.2-34.8-3.7
		c-10.9-2.9-20.4-7.2-28.5-12.9c-8.2-5.7-14-12.1-17.4-19.2C888,610.5,886.2,599.6,886.2,585.2z M990.8,653.8v-21.1
		c10.7-1.4,19.7-5.8,26.9-13.2c8.2-8.5,12.2-20.7,12.2-36.6V477.9c0-14.7-5.6-25-16.9-30.8c-3.3-1.7-5.5-3.2-6.5-4.4
		c-1-1.2-1.5-3-1.5-5.4c0-2.8,1-4.8,3.1-6c2-1.2,5.4-1.8,10-1.8h39.5c3.3,0,5.6,0.1,6.7,0.2c1.1,0.2,2.2,0.6,3.3,1.2
		c2.8,1.6,4.2,3.8,4.2,6.6c0,2.4-0.9,4.4-2.6,6c-0.5,0.5-2.8,2-6.9,4.4c-4.7,2.6-8.4,6.5-11.1,11.8c-2.7,5.3-4,11.4-4,18.1v105.2
		c0,18-4,32.9-11.9,44.5c-5.8,8.6-14.1,15.5-25,20.6C1004.8,650.8,998.3,652.6,990.8,653.8z"/>
	<path class="st0" d="M1119.5,486.1l17.1,28.4v86.4c0,7.5,1.3,13.7,3.8,18.5c2.5,4.8,6.5,8.8,12,11.9l4.8,2.7c2.8,1.6,4.2,4,4.2,7.3
		c0,2.5-1,4.5-3.1,6.1c-1.7,1.4-5.3,2.1-10.6,2.1h-37.2c-9.8,0-14.7-2.8-14.7-8.4c0-1.9,0.5-3.5,1.5-4.6c1-1.1,3.2-2.7,6.7-4.6
		c10.3-5.7,15.5-16.1,15.5-31.1V486.1z M1187.1,429.5l85.7,148.9v71.1h-44L1119.4,461c-2.4-4.1-4.3-6.9-5.8-8.5
		c-1.5-1.6-3.4-2.8-5.8-3.5l-6.1-2.3c-1.6-0.5-2.9-1.5-3.9-2.9c-1-1.4-1.5-3-1.5-4.7c0-1.8,0.5-3.5,1.5-5.1c1-1.6,2.3-2.7,3.9-3.3
		c1.8-0.8,6.8-1.1,14.8-1.1H1187.1z M1272.8,552.6l-17.1-28.8v-44.6c0-9-1.3-15.9-3.9-20.7c-2.6-4.8-7.3-8.9-13.9-12.3
		c-2.3-1.1-3.8-2.2-4.7-3.5c-0.9-1.2-1.3-2.8-1.3-4.8c0-2.9,0.9-5,2.8-6.4c1.9-1.3,4.9-2,9.1-2h40.3c5.5,0,9.1,0.9,10.8,2.6
		c1.8,1.7,2.7,3.8,2.7,6.1c0,2.3-0.5,3.9-1.5,5.1c-1,1.1-3.5,2.7-7.3,4.6c-5.7,2.9-10,7.4-12.9,13.4c-2,4.4-3.1,10.4-3.1,17.9V552.6
		z"/>
</g>
</svg>
